<mxfile host="65bd71144e">
    <diagram id="E9SxX19eNgA6MUTyjjO6" name="Icon-黑白">
        <mxGraphModel dx="362" dy="789" grid="1" gridSize="10" guides="1" tooltips="1" connect="1" arrows="1" fold="1" page="1" pageScale="1" pageWidth="1169" pageHeight="827" math="0" shadow="0">
            <root>
                <mxCell id="dBwEeFoJ6bCwSJ_cmpG_-0"/>
                <mxCell id="dBwEeFoJ6bCwSJ_cmpG_-1" parent="dBwEeFoJ6bCwSJ_cmpG_-0"/>
                <mxCell id="dBwEeFoJ6bCwSJ_cmpG_-3" value="" style="whiteSpace=wrap;html=1;aspect=fixed;fillColor=#F0F0F0;strokeWidth=5;fontColor=#ffffff;strokeColor=#000000;" parent="dBwEeFoJ6bCwSJ_cmpG_-1" vertex="1">
                    <mxGeometry x="460" y="260" width="120" height="120" as="geometry"/>
                </mxCell>
                <mxCell id="dBwEeFoJ6bCwSJ_cmpG_-4" value="" style="whiteSpace=wrap;html=1;aspect=fixed;fillColor=#F0F0F0;strokeWidth=3;fontColor=#ffffff;strokeColor=#000000;" parent="dBwEeFoJ6bCwSJ_cmpG_-1" vertex="1">
                    <mxGeometry x="483.75" y="283.75" width="72.5" height="72.5" as="geometry"/>
                </mxCell>
                <mxCell id="dBwEeFoJ6bCwSJ_cmpG_-5" value="" style="ellipse;whiteSpace=wrap;html=1;aspect=fixed;strokeWidth=2;fillColor=none;strokeColor=#F0F0F0;" parent="dBwEeFoJ6bCwSJ_cmpG_-1" vertex="1">
                    <mxGeometry x="470" y="270" width="10" height="10" as="geometry"/>
                </mxCell>
                <mxCell id="dBwEeFoJ6bCwSJ_cmpG_-6" value="" style="ellipse;whiteSpace=wrap;html=1;aspect=fixed;strokeWidth=2;fillColor=none;strokeColor=#000000;" parent="dBwEeFoJ6bCwSJ_cmpG_-1" vertex="1">
                    <mxGeometry x="470" y="360" width="10" height="10" as="geometry"/>
                </mxCell>
                <mxCell id="dBwEeFoJ6bCwSJ_cmpG_-7" value="" style="ellipse;whiteSpace=wrap;html=1;aspect=fixed;strokeWidth=2;fillColor=none;strokeColor=#000000;" parent="dBwEeFoJ6bCwSJ_cmpG_-1" vertex="1">
                    <mxGeometry x="560" y="360" width="10" height="10" as="geometry"/>
                </mxCell>
                <mxCell id="dBwEeFoJ6bCwSJ_cmpG_-8" value="" style="ellipse;whiteSpace=wrap;html=1;aspect=fixed;strokeWidth=2;fillColor=none;strokeColor=#F0F0F0;" parent="dBwEeFoJ6bCwSJ_cmpG_-1" vertex="1">
                    <mxGeometry x="560" y="270" width="10" height="10" as="geometry"/>
                </mxCell>
                <mxCell id="dBwEeFoJ6bCwSJ_cmpG_-17" style="edgeStyle=orthogonalEdgeStyle;rounded=0;html=1;exitX=0;exitY=0.75;exitDx=0;exitDy=0;exitPerimeter=0;entryX=1;entryY=0.5;entryDx=0;entryDy=0;fontFamily=Comic Sans MS;fontSize=13;endArrow=none;endFill=0;strokeColor=#000000;strokeWidth=2;" parent="dBwEeFoJ6bCwSJ_cmpG_-1" source="dBwEeFoJ6bCwSJ_cmpG_-9" target="dBwEeFoJ6bCwSJ_cmpG_-12" edge="1">
                    <mxGeometry relative="1" as="geometry"/>
                </mxCell>
                <mxCell id="dBwEeFoJ6bCwSJ_cmpG_-9" value="" style="verticalLabelPosition=bottom;shadow=0;dashed=0;align=center;html=1;verticalAlign=top;shape=mxgraph.electrical.logic_gates.logic_gate;operation=and;strokeWidth=2;fillColor=#000000;strokeColor=#000000;" parent="dBwEeFoJ6bCwSJ_cmpG_-1" vertex="1">
                    <mxGeometry x="520" y="312" width="30" height="15" as="geometry"/>
                </mxCell>
                <mxCell id="dBwEeFoJ6bCwSJ_cmpG_-10" value="&lt;font face=&quot;Comic Sans MS&quot; size=&quot;1&quot;&gt;&lt;b style=&quot;font-size: 13px&quot;&gt;Digtal-IDE&lt;/b&gt;&lt;/font&gt;" style="text;html=1;strokeColor=none;fillColor=none;align=center;verticalAlign=middle;whiteSpace=wrap;rounded=0;fontColor=#000000;" parent="dBwEeFoJ6bCwSJ_cmpG_-1" vertex="1">
                    <mxGeometry x="483.75" y="340" width="72.5" height="10" as="geometry"/>
                </mxCell>
                <mxCell id="dBwEeFoJ6bCwSJ_cmpG_-16" style="edgeStyle=orthogonalEdgeStyle;rounded=0;html=1;exitX=1;exitY=0.5;exitDx=0;exitDy=0;entryX=0;entryY=0.25;entryDx=0;entryDy=0;entryPerimeter=0;fontFamily=Comic Sans MS;fontSize=8;endArrow=none;endFill=0;strokeColor=#000000;strokeWidth=2;" parent="dBwEeFoJ6bCwSJ_cmpG_-1" source="dBwEeFoJ6bCwSJ_cmpG_-11" target="dBwEeFoJ6bCwSJ_cmpG_-9" edge="1">
                    <mxGeometry relative="1" as="geometry">
                        <Array as="points">
                            <mxPoint x="515" y="305"/>
                            <mxPoint x="515" y="316"/>
                        </Array>
                    </mxGeometry>
                </mxCell>
                <mxCell id="dBwEeFoJ6bCwSJ_cmpG_-11" value="" style="whiteSpace=wrap;html=1;aspect=fixed;fontFamily=Comic Sans MS;fontSize=8;strokeWidth=1;fillColor=default;" parent="dBwEeFoJ6bCwSJ_cmpG_-1" vertex="1">
                    <mxGeometry x="500" y="300" width="10" height="10" as="geometry"/>
                </mxCell>
                <mxCell id="dBwEeFoJ6bCwSJ_cmpG_-12" value="" style="whiteSpace=wrap;html=1;aspect=fixed;fontFamily=Comic Sans MS;fontSize=8;strokeWidth=1;fillColor=default;" parent="dBwEeFoJ6bCwSJ_cmpG_-1" vertex="1">
                    <mxGeometry x="500" y="318.5" width="10" height="10" as="geometry"/>
                </mxCell>
                <mxCell id="0" value="" style="whiteSpace=wrap;html=1;aspect=fixed;fontFamily=Comic Sans MS;fontSize=8;strokeWidth=1;fillColor=#000000;strokeColor=#000000;" parent="dBwEeFoJ6bCwSJ_cmpG_-1" vertex="1">
                    <mxGeometry x="500" y="318.5" width="10" height="10" as="geometry"/>
                </mxCell>
                <mxCell id="1" value="" style="whiteSpace=wrap;html=1;aspect=fixed;fontFamily=Comic Sans MS;fontSize=8;strokeWidth=1;fillColor=#000000;strokeColor=#000000;" parent="dBwEeFoJ6bCwSJ_cmpG_-1" vertex="1">
                    <mxGeometry x="500" y="300" width="10" height="10" as="geometry"/>
                </mxCell>
                <mxCell id="2" value="" style="ellipse;whiteSpace=wrap;html=1;aspect=fixed;strokeWidth=2;fillColor=none;strokeColor=#000000;" parent="dBwEeFoJ6bCwSJ_cmpG_-1" vertex="1">
                    <mxGeometry x="470" y="270" width="10" height="10" as="geometry"/>
                </mxCell>
                <mxCell id="3" value="" style="ellipse;whiteSpace=wrap;html=1;aspect=fixed;strokeWidth=2;fillColor=none;strokeColor=#000000;" parent="dBwEeFoJ6bCwSJ_cmpG_-1" vertex="1">
                    <mxGeometry x="560" y="270" width="10" height="10" as="geometry"/>
                </mxCell>
            </root>
        </mxGraphModel>
    </diagram>
    <diagram id="2oZjiazD9LnPP1Vpl2Fo" name="第 2 页">
        <mxGraphModel dx="912" dy="915" grid="1" gridSize="10" guides="1" tooltips="1" connect="1" arrows="1" fold="1" page="0" pageScale="1" pageWidth="827" pageHeight="1169" math="0" shadow="0">
            <root>
                <mxCell id="0"/>
                <mxCell id="1" parent="0"/>
                <mxCell id="pMMTfvQaiQNnUj1LB8wt-1" value="" style="rounded=1;whiteSpace=wrap;html=1;fillColor=none;strokeWidth=24;" vertex="1" parent="1">
                    <mxGeometry x="-170" y="340" width="330" height="330" as="geometry"/>
                </mxCell>
                <mxCell id="pMMTfvQaiQNnUj1LB8wt-2" value="" style="rounded=1;whiteSpace=wrap;html=1;fillColor=none;strokeWidth=20;" vertex="1" parent="1">
                    <mxGeometry x="-78" y="432" width="146" height="146" as="geometry"/>
                </mxCell>
                <mxCell id="pMMTfvQaiQNnUj1LB8wt-3" value="" style="ellipse;whiteSpace=wrap;html=1;aspect=fixed;strokeWidth=8;fillColor=#FFFFFF;strokeColor=#FFFFFF;" vertex="1" parent="1">
                    <mxGeometry x="-140" y="370" width="40" height="40" as="geometry"/>
                </mxCell>
                <mxCell id="pMMTfvQaiQNnUj1LB8wt-5" value="" style="ellipse;whiteSpace=wrap;html=1;aspect=fixed;strokeWidth=8;fillColor=#FFFFFF;strokeColor=#FFFFFF;" vertex="1" parent="1">
                    <mxGeometry x="90" y="370" width="40" height="40" as="geometry"/>
                </mxCell>
                <mxCell id="pMMTfvQaiQNnUj1LB8wt-6" value="" style="ellipse;whiteSpace=wrap;html=1;aspect=fixed;strokeWidth=8;fillColor=#FFFFFF;strokeColor=#FFFFFF;" vertex="1" parent="1">
                    <mxGeometry x="90" y="600" width="40" height="40" as="geometry"/>
                </mxCell>
                <mxCell id="pMMTfvQaiQNnUj1LB8wt-7" value="" style="ellipse;whiteSpace=wrap;html=1;aspect=fixed;strokeWidth=8;fillColor=#FFFFFF;strokeColor=#FFFFFF;" vertex="1" parent="1">
                    <mxGeometry x="-140" y="600" width="40" height="40" as="geometry"/>
                </mxCell>
            </root>
        </mxGraphModel>
    </diagram>
</mxfile>